<?xml version="1.0" encoding="utf-8"?>
<!-- Generator: Adobe Illustrator 19.1.0, SVG Export Plug-In . SVG Version: 6.00 Build 0)  -->
<svg version="1.1" id="_x32_0" xmlns="http://www.w3.org/2000/svg" xmlns:xlink="http://www.w3.org/1999/xlink" x="0px" y="0px"
	 viewBox="0 0 168.7 238.6" style="enable-background:new 0 0 168.7 238.6;" xml:space="preserve">
<style type="text/css">
	.st0{fill:none;stroke:#000000;stroke-width:0.125;stroke-linecap:round;stroke-linejoin:round;stroke-miterlimit:10;}
</style>
<g id="LWPOLYLINE_93_">
	<path class="st0" d="M129.9,76.5c2.9,0.2,5.6,1.4,7.6,3.3c2,1.9,3.4,4.5,3.7,7.4c0.4,3.3-0.6,6.5-2.5,9c-1.9,2.4-4.8,4.2-8.1,4.6
		v38.4v38.4c3.3,0.4,6.1,2.1,8,4.5c1.9,2.4,2.9,5.6,2.5,8.9c-0.4,3.3-2.1,6.1-4.5,8c-2.4,1.9-5.6,2.9-8.9,2.5l-4.6,6.3l-4.6,6.3
		c-0.7,0.9-1.5,1.6-2.5,2.1c-1,0.5-2.1,0.8-3.2,0.8H99H85.2H71.5H57.7c-1.1,0-2.2-0.3-3.2-0.8c-1-0.5-1.8-1.2-2.5-2.1l-4.6-6.3
		l-4.6-6.3c-3.3,0.4-6.5-0.6-8.9-2.5c-2.4-1.9-4.1-4.7-4.5-8c-0.4-3.3,0.6-6.5,2.5-8.9c1.9-2.4,4.7-4.1,8-4.5v-38.4v-38.4
		c-2.9-0.2-5.6-1.4-7.6-3.3c-2-1.9-3.4-4.5-3.7-7.4c-0.4-3.3,0.6-6.5,2.5-8.9c1.9-2.4,4.8-4.1,8.1-4.5h0h0c0.5,0,0.9-0.2,1.3-0.5
		c0.3-0.3,0.5-0.8,0.5-1.3c0-0.1,0-0.1,0-0.2c0-0.1,0-0.1,0-0.2l-4.2-24.5l-4.2-24.5c0,0,0,0,0,0c0,0,0,0,0,0
		c-0.3-1.9,0.2-3.8,1.2-5.3c1.1-1.5,2.7-2.5,4.6-2.9l6.1-1l6.1-1c1.9-0.3,3.8,0.2,5.2,1.2c1.5,1,2.5,2.6,2.9,4.5l2.6,14.7l2.6,14.7
		c0.2,1,0.7,1.9,1.4,2.5c0.7,0.6,1.7,1,2.7,1h8.5h8.5h8.5h8.5c1,0,2-0.4,2.7-1c0.7-0.6,1.3-1.5,1.4-2.5l2.6-14.7l2.6-14.7
		c0.3-1.9,1.4-3.5,2.9-4.5c1.5-1,3.3-1.5,5.2-1.2l6.1,1l6.1,1c0,0,0,0,0,0c0,0,0,0,0,0c1.9,0.3,3.5,1.4,4.6,2.9
		c1,1.5,1.5,3.4,1.2,5.3l-4.2,24.5l-4.2,24.5c-0.2,0.3-0.2,0.7-0.1,1.1c0.1,0.3,0.4,0.6,0.7,0.8c0,0,0.1,0,0.1,0c0,0,0.1,0,0.1,0"/>
</g>
<g>
	<g id="LWPOLYLINE_230_">
		<path class="st0" d="M129.1,194.2c0.6,0,1.2-0.1,1.8-0.4c0.5-0.2,1-0.6,1.4-1s0.7-0.9,1-1.4c0.2-0.5,0.4-1.1,0.4-1.8
			c0-0.6-0.1-1.2-0.4-1.8c-0.2-0.5-0.6-1-1-1.4s-0.9-0.7-1.4-1c-0.5-0.2-1.1-0.4-1.8-0.4c-0.6,0-1.2,0.1-1.8,0.4
			c-0.5,0.2-1,0.6-1.4,1c-0.4,0.4-0.7,0.9-1,1.4c-0.2,0.5-0.4,1.1-0.4,1.8c0,0.6,0.1,1.2,0.4,1.8c0.2,0.5,0.6,1,1,1.4
			c0.4,0.4,0.9,0.7,1.4,1C127.9,194,128.5,194.2,129.1,194.2"/>
	</g>
	<g id="LWPOLYLINE_232_">
		<path class="st0" d="M41.4,194.2c0.6,0,1.2-0.1,1.8-0.4c0.5-0.2,1-0.6,1.4-1s0.7-0.9,1-1.4c0.2-0.5,0.4-1.1,0.4-1.8
			c0-0.6-0.1-1.2-0.4-1.8c-0.2-0.5-0.6-1-1-1.4s-0.9-0.7-1.4-1c-0.5-0.2-1.1-0.4-1.8-0.4c-0.6,0-1.2,0.1-1.8,0.4
			c-0.5,0.2-1,0.6-1.4,1s-0.7,0.9-1,1.4c-0.2,0.5-0.4,1.1-0.4,1.8c0,0.6,0.1,1.2,0.4,1.8c0.2,0.5,0.6,1,1,1.4s0.9,0.7,1.4,1
			C40.2,194,40.8,194.2,41.4,194.2"/>
	</g>
	<g id="LWPOLYLINE_234_">
		<path class="st0" d="M129.1,93.2c0.6,0,1.2-0.1,1.8-0.4s1-0.6,1.4-1c0.4-0.4,0.7-0.9,1-1.4c0.2-0.5,0.4-1.1,0.4-1.8
			c0-0.6-0.1-1.2-0.4-1.8c-0.2-0.5-0.6-1-1-1.4c-0.4-0.4-0.9-0.7-1.4-1c-0.5-0.2-1.1-0.4-1.8-0.4c-0.6,0-1.2,0.1-1.8,0.4
			c-0.5,0.2-1,0.6-1.4,1c-0.4,0.4-0.7,0.9-1,1.4c-0.2,0.5-0.4,1.1-0.4,1.8c0,0.6,0.1,1.2,0.4,1.8c0.2,0.5,0.6,1,1,1.4
			c0.4,0.4,0.9,0.7,1.4,1C127.9,93.1,128.5,93.2,129.1,93.2"/>
	</g>
	<g id="LWPOLYLINE_236_">
		<path class="st0" d="M40.9,93.2c0.6,0,1.2-0.1,1.8-0.4c0.5-0.2,1-0.6,1.4-1c0.4-0.4,0.7-0.9,1-1.4c0.2-0.5,0.4-1.1,0.4-1.8
			c0-0.6-0.1-1.2-0.4-1.8c-0.2-0.5-0.6-1-1-1.4c-0.4-0.4-0.9-0.7-1.4-1c-0.5-0.2-1.1-0.4-1.8-0.4c-0.6,0-1.2,0.1-1.8,0.4
			c-0.5,0.2-1,0.6-1.4,1c-0.4,0.4-0.7,0.9-1,1.4c-0.2,0.5-0.4,1.1-0.4,1.8c0,0.6,0.1,1.2,0.4,1.8c0.2,0.5,0.6,1,1,1.4
			c0.4,0.4,0.9,0.7,1.4,1C39.7,93,40.3,93.2,40.9,93.2"/>
	</g>
</g>
</svg>
